<svg xmlns="http://www.w3.org/2000/svg" viewBox="0 0 232.22 87.73"><defs><style>.cls-1{fill:#fff;}.cls-2{fill:#00c1de;}.cls-3{fill:#6abf4b;}</style></defs><g id="Layer_2" data-name="Layer 2"><g id="Layer_1-2" data-name="Layer 1"><rect class="cls-1" x="28.61" width="15.95" height="66.47"/><rect class="cls-1" x="151.91" width="15.95" height="66.47"/><rect class="cls-1" x="79.51" y="22.88" width="15.95" height="43.59"/><path class="cls-1" d="M219.71,45.28a23.4,23.4,0,0,1-46.77-1V22.7h16l-.09,20.93c0,.21-.07.41-.07.63a7.59,7.59,0,0,0,15.18.4v-.8c0-.08,0-.15,0-.23h0V22.7h16Z"/><path class="cls-1" d="M100.25,43.89a23.39,23.39,0,0,1,46.76,1V66.47H131.06l.09-20.92c0-.21.07-.42.07-.64a7.6,7.6,0,0,0-15.19-.4v.8l0,.24h0V66.47h-16Z"/><polygon class="cls-1" points="58.37 22.88 36.58 44.12 59.36 66.47 77.81 66.47 54.22 44.49 75.28 22.9 58.37 22.88"/><path class="cls-2" d="M114.13,83.19v1.47h-7.39V74.41H114v1.46h-5.64v2.71h4.47v1.47h-4.47v3.14Z"/><path class="cls-2" d="M117.28,78.36l.1-.09a1.25,1.25,0,0,1,.27-.21,3.23,3.23,0,0,1,.44-.27,2.65,2.65,0,0,1,.59-.21,2.57,2.57,0,0,1,.73-.1,2.71,2.71,0,0,1,2.06.84,3.14,3.14,0,0,1,.79,2.24v4.1h-1.47v-4.1a1.77,1.77,0,0,0-.48-1.26,1.61,1.61,0,0,0-1.2-.5,1.71,1.71,0,0,0-1.33.54,2.17,2.17,0,0,0-.5,1.51v3.81h-1.46v-7h1.46Z"/><path class="cls-2" d="M125.33,81.66a2.08,2.08,0,0,0,.73,1.28,2.15,2.15,0,0,0,1.47.54,2.53,2.53,0,0,0,1.15-.27,2.59,2.59,0,0,0,.75-.55l.22-.27.95,1-.13.16a3.86,3.86,0,0,1-.38.35,5,5,0,0,1-.62.44,4.9,4.9,0,0,1-.86.35,3.58,3.58,0,0,1-1.08.16A3.5,3.5,0,0,1,125,83.7a3.62,3.62,0,0,1-1.08-2.63,3.58,3.58,0,0,1,3.58-3.59,3.37,3.37,0,0,1,3.45,3.45l-.08.73Zm.79-2.46a2.35,2.35,0,0,0-.73,1.21h4.07a2,2,0,0,0-.67-1.21,2.13,2.13,0,0,0-2.67,0Z"/><path class="cls-2" d="M135.8,78.8a1.73,1.73,0,0,0-1.34.54,2.16,2.16,0,0,0-.49,1.51v3.81H132.5v-7H134v.73l.09-.09a1.25,1.25,0,0,1,.27-.21,4,4,0,0,1,.44-.27,2.85,2.85,0,0,1,.59-.21,2.62,2.62,0,0,1,.73-.1h.36v1.39A3.16,3.16,0,0,0,135.8,78.8Z"/><path class="cls-2" d="M142.6,83.63l-.1.1-.26.21a3.91,3.91,0,0,1-.44.26,3.67,3.67,0,0,1-.6.22,2.92,2.92,0,0,1-.73.09,3.08,3.08,0,0,1-2.3-1,3.65,3.65,0,0,1,0-5,3.06,3.06,0,0,1,2.3-1,3,3,0,0,1,1.12.22,2.52,2.52,0,0,1,.76.45l.25.21v-.73h1.46v6.59a3.47,3.47,0,0,1-3.51,3.51,4.24,4.24,0,0,1-1.14-.15,4,4,0,0,1-.89-.37,5.55,5.55,0,0,1-.62-.42,2.23,2.23,0,0,1-.38-.38l-.12-.15,1-1,.09.12s.14.14.28.27a4.59,4.59,0,0,0,.44.33,2.7,2.7,0,0,0,.61.27,2.52,2.52,0,0,0,.77.11,1.94,1.94,0,0,0,1.47-.6,2.23,2.23,0,0,0,.58-1.58Zm-3.36-1.07a1.84,1.84,0,0,0,1.38.63,1.86,1.86,0,0,0,1.39-.63A2.24,2.24,0,0,0,142.6,81a2.21,2.21,0,0,0-.59-1.56,1.87,1.87,0,0,0-1.39-.64,1.85,1.85,0,0,0-1.38.64,2.17,2.17,0,0,0-.6,1.56A2.21,2.21,0,0,0,139.24,82.56Z"/><path class="cls-2" d="M148.09,84.66l-2.86-7h1.54l2,5.13,2.05-5.13h1.54l-3.15,7.76a5.84,5.84,0,0,1-1.08,1.82,1.81,1.81,0,0,1-1.33.52,3.16,3.16,0,0,1-.55,0,3,3,0,0,1-.38-.07l-.1,0V86.26a1.91,1.91,0,0,0,.73.15,1.35,1.35,0,0,0,1.25-1Z"/><path class="cls-2" d="M161.55,80.94a2,2,0,0,0-.78-.5,7.67,7.67,0,0,0-1.05-.33c-.39-.1-.77-.22-1.16-.36a6,6,0,0,1-1.05-.52,2.22,2.22,0,0,1-.78-.85,2.79,2.79,0,0,1-.3-1.34,2.51,2.51,0,0,1,.91-2,3.59,3.59,0,0,1,2.46-.8,4.42,4.42,0,0,1,1.1.14,4.69,4.69,0,0,1,.87.33,7.09,7.09,0,0,1,.6.38,2.5,2.5,0,0,1,.39.33l.11.14-1,1a.49.49,0,0,1-.08-.1l-.25-.21a2.8,2.8,0,0,0-.4-.27,3.3,3.3,0,0,0-.57-.21,3.08,3.08,0,0,0-.75-.09,2,2,0,0,0-1.28.39A1.18,1.18,0,0,0,158,77a1.14,1.14,0,0,0,.3.8,2.06,2.06,0,0,0,.78.5,9.36,9.36,0,0,0,1,.33c.39.1.77.22,1.16.36a5.68,5.68,0,0,1,1,.51,2.18,2.18,0,0,1,.78.86,2.75,2.75,0,0,1,.3,1.33,2.84,2.84,0,0,1-1,2.21,4,4,0,0,1-2.69.86,5.35,5.35,0,0,1-1.34-.17,4.26,4.26,0,0,1-1-.4,5,5,0,0,1-.7-.47,2.63,2.63,0,0,1-.44-.39l-.14-.18,1-1,.1.12a1.85,1.85,0,0,0,.31.29,2.61,2.61,0,0,0,.51.36,4.29,4.29,0,0,0,.74.28,3.87,3.87,0,0,0,1,.12,2.26,2.26,0,0,0,1.5-.46,1.45,1.45,0,0,0,.55-1.15A1.09,1.09,0,0,0,161.55,80.94Z"/><path class="cls-2" d="M165.8,78.57a3.63,3.63,0,1,1,2.57,6.23,3.63,3.63,0,0,1-2.57-6.23Zm4.11.91a2.07,2.07,0,0,0-1.54-.68,2.09,2.09,0,0,0-1.55.68,2.43,2.43,0,0,0,0,3.33,2.08,2.08,0,0,0,1.55.67,2.06,2.06,0,0,0,1.54-.67,2.46,2.46,0,0,0,0-3.33Z"/><path class="cls-2" d="M175.24,84.66h-1.46V74.41h1.46Z"/><path class="cls-2" d="M182.41,83.93l-.09.09-.27.21a3.23,3.23,0,0,1-.44.27,4.84,4.84,0,0,1-.59.21,3,3,0,0,1-.73.09,2.71,2.71,0,0,1-2.06-.83,3.11,3.11,0,0,1-.79-2.24v-4.1h1.46v4.1a1.73,1.73,0,0,0,.48,1.25,1.6,1.6,0,0,0,1.2.5,1.71,1.71,0,0,0,1.33-.54,2.13,2.13,0,0,0,.5-1.51v-3.8h1.47v7h-1.47Z"/><path class="cls-2" d="M186.88,75.29h1.32v2.34h1.46V79H188.2v3.64a.86.86,0,0,0,.88.89l.34,0a1.85,1.85,0,0,0,.29-.08l.1,0v1.32a3.44,3.44,0,0,1-1,.14c-1.37,0-2-.73-2-2.19V79h-1.32V77.63h.74c.48,0,.72-.29.72-.88Z"/><path class="cls-2" d="M193,76.07a.89.89,0,0,1-.63.25.85.85,0,0,1-.88-.88.85.85,0,0,1,.88-.88.85.85,0,0,1,.88.88A.89.89,0,0,1,193,76.07Zm.1,8.59h-1.47v-7h1.47Z"/><path class="cls-2" d="M195.89,78.57A3.63,3.63,0,1,1,201,83.71a3.66,3.66,0,0,1-6.22-2.57A3.52,3.52,0,0,1,195.89,78.57Zm4.11.91a2.1,2.1,0,0,0-3.09,0,2.43,2.43,0,0,0,0,3.33,2.12,2.12,0,0,0,3.09,0,2.46,2.46,0,0,0,0-3.33Z"/><path class="cls-2" d="M205.19,78.36l.09-.09a1.25,1.25,0,0,1,.27-.21,4,4,0,0,1,.44-.27,2.65,2.65,0,0,1,.59-.21,2.62,2.62,0,0,1,.73-.1,2.7,2.7,0,0,1,2.06.84,3.1,3.1,0,0,1,.79,2.24v4.1h-1.47v-4.1a1.77,1.77,0,0,0-.48-1.26,1.6,1.6,0,0,0-1.19-.5,1.73,1.73,0,0,0-1.34.54,2.16,2.16,0,0,0-.49,1.51v3.81h-1.47v-7h1.47Z"/><path class="cls-2" d="M215.73,79.39l-.17-.16a2.2,2.2,0,0,0-.46-.27,1.74,1.74,0,0,0-.7-.16,1.18,1.18,0,0,0-.74.22.64.64,0,0,0-.28.51.63.63,0,0,0,.27.52,1.69,1.69,0,0,0,.66.31c.27.07.56.16.86.27A8.75,8.75,0,0,1,216,81a1.7,1.7,0,0,1,.67.61,1.92,1.92,0,0,1,.26,1,2,2,0,0,1-.73,1.55,2.84,2.84,0,0,1-1.91.64,3.51,3.51,0,0,1-1-.13,3.32,3.32,0,0,1-.77-.31,4.68,4.68,0,0,1-.52-.36,2,2,0,0,1-.33-.31l-.11-.13.95-1,.21.25a2.67,2.67,0,0,0,.61.39,2.1,2.1,0,0,0,.94.23,1.42,1.42,0,0,0,.88-.23.78.78,0,0,0,.29-.64.62.62,0,0,0-.26-.52,2,2,0,0,0-.66-.31q-.41-.11-.87-.27c-.3-.11-.59-.23-.86-.36a1.7,1.7,0,0,1-.67-.61,1.92,1.92,0,0,1-.26-1,1.84,1.84,0,0,1,.71-1.43,2.6,2.6,0,0,1,1.77-.62,3.18,3.18,0,0,1,.82.1,2.56,2.56,0,0,1,.65.23,4.2,4.2,0,0,1,.44.29,2.73,2.73,0,0,1,.27.23l.1.11Z"/><path class="cls-3" d="M25.16,25.12,18.92,9.58a24.57,24.57,0,0,0-3.41,1.1,27.34,27.34,0,0,0-3.22,1.56l6.24,15.54Z"/><path class="cls-3" d="M15.54,34.78,0,41a26.53,26.53,0,0,0,1.1,3.41,25.9,25.9,0,0,0,1.56,3.22l15.55-6.24Z"/><path class="cls-3" d="M18.35,28,3,21.38A26.15,26.15,0,0,0,.14,28l15.4,6.58Z"/><path class="cls-3" d="M18.38,41.6,11.8,57a26.19,26.19,0,0,0,6.58,2.8L25,44.41Z"/><path class="cls-1" d="M224.32,23.8h-1.16V22.69h3.67V23.8h-1.15v4.8h-1.36Z"/><path class="cls-1" d="M231,26.71c0-.92,0-2.15,0-2.86h0c-.18,1.23-.42,3.23-.69,4.75h-1.1c-.21-1.58-.45-3.57-.61-4.76h0c0,.69.05,1.89.05,2.91V28.6h-1.2V22.69h1.92c.19,1.24.38,2.71.47,3.55h0c.12-.89.35-2.17.56-3.55h1.89V28.6H231Z"/></g></g></svg>