<svg xmlns="http://www.w3.org/2000/svg" width="800" height="300" fill="none" viewBox="0 0 800 300"><path fill="#000" d="M50.0195 85.4V74.6H116.62V85.4L101.22 87C101.086 94.7333 101.02 102.6 101.02 110.6C101.02 118.6 101.02 126.667 101.02 134.8V155.6C101.02 173.733 99.8195 188.4 97.4195 199.6C95.1529 210.8 90.6195 219.8 83.8195 226.6C74.3529 235.933 63.0862 240.6 50.0195 240.6C44.5529 240.6 39.7529 239.533 35.6195 237.4C31.4862 235.4 28.2862 232.267 26.0195 228C26.1529 223.333 27.7529 219.667 30.8195 217C33.7529 214.467 37.4195 213.2 41.8195 213.2C45.2862 213.2 48.4195 214.067 51.2195 215.8C54.0195 217.667 56.9529 220.467 60.0195 224.2L64.2195 229.2C65.8195 226.133 66.9529 222.067 67.6195 217C68.2862 212.067 68.6195 205.933 68.6195 198.6C68.6195 192.333 68.5529 184.4 68.4195 174.8C68.2862 165.067 68.0862 153.067 67.8195 138.8C67.5529 124.4 67.2862 107.2 67.0195 87.2L50.0195 85.4ZM222.699 105.2L206.099 156.2H238.899L222.699 105.2ZM166.499 206V195.2L182.699 192.8L223.299 74.4H243.899L284.899 194.2L297.099 195.6V206H235.299V195.6L250.699 193.6L242.499 167.8H202.299L194.299 192.8L209.499 195.2V206H166.499ZM392.634 209.8C385.167 209.8 377.5 208.933 369.634 207.2C361.767 205.467 354.967 202.8 349.234 199.2L350.434 169.6H369.034L373.034 194.2C376.1 195.4 379.167 196.333 382.234 197C385.3 197.533 388.7 197.8 392.434 197.8C399.634 197.8 405.1 196 408.834 192.4C412.567 188.667 414.434 184.133 414.434 178.8C414.434 173.467 413.034 169.333 410.234 166.4C407.567 163.467 403.234 160.667 397.234 158L388.634 154.2C376.9 148.733 367.767 142.667 361.234 136C354.834 129.333 351.634 120.467 351.634 109.4C351.634 97.4 356.1 88 365.034 81.2C374.1 74.2667 386.167 70.8 401.234 70.8C408.434 70.8 415.3 71.7333 421.834 73.6C428.5 75.3333 434.234 77.8 439.034 81L437.434 109H419.034L415.234 85.4C413.1 84.6 410.967 84 408.834 83.6C406.7 83.0667 404.367 82.8 401.834 82.8C396.1 82.8 391.234 84.4667 387.234 87.8C383.234 91.1333 381.234 95.5333 381.234 101C381.234 106.333 382.767 110.6 385.834 113.8C389.034 116.867 393.567 119.733 399.434 122.4L408.834 126.6C421.5 132.333 430.634 138.4 436.234 144.8C441.967 151.067 444.834 159.267 444.834 169.4C444.834 181.133 440.367 190.8 431.434 198.4C422.634 206 409.7 209.8 392.634 209.8ZM500.01 85.4V74.6H564.41V85.4L549.41 87C549.277 95.1333 549.143 103.333 549.01 111.6C549.01 119.867 549.01 128.2 549.01 136.6V143.8C549.01 152.067 549.01 160.4 549.01 168.8C549.143 177.067 549.277 185.333 549.41 193.6L564.41 195.2V206H500.01V195.2L515.01 193.6C515.277 185.467 515.41 177.267 515.41 169C515.41 160.733 515.41 152.4 515.41 144V136.6C515.41 128.333 515.41 120.067 515.41 111.8C515.41 103.4 515.277 95.1333 515.01 87L500.01 85.4ZM699.323 85.4V74.6H745.723V85.4L726.723 87.8L700.323 119.4L739.723 193.8L751.923 195.2V206H694.123V195.2L703.723 194.2L679.123 144.4L667.723 158C667.723 163.733 667.723 169.6 667.723 175.6C667.856 181.6 667.989 187.6 668.123 193.6L681.123 195.2V206H620.323V195.2L635.323 193.6C635.589 185.467 635.723 177.267 635.723 169C635.723 160.733 635.723 152.4 635.723 144V136.6C635.723 128.333 635.723 120.067 635.723 111.8C635.723 103.4 635.589 95.1333 635.323 87L620.323 85.4V74.6H683.323V85.4L668.123 87C667.989 95.1333 667.856 103.333 667.723 111.6C667.723 119.867 667.723 128.2 667.723 136.6V143.2L712.523 87.8L699.323 85.4Z"/></svg>